<svg xmlns="http://www.w3.org/2000/svg" width="47" height="47" viewBox="0 0 47 47">
  <path id="Shape" d="M33.539,47H13.461A4.05,4.05,0,0,1,9.4,42.968V27.909A10.989,10.989,0,0,1,2.711,24.29,10.876,10.876,0,0,1,10.964,6.23c.262,0,.53.01.795.03a14.144,14.144,0,0,1,23.484,0c.267-.02.535-.03.794-.03A10.892,10.892,0,0,1,37.6,27.909V42.968A4.05,4.05,0,0,1,33.539,47ZM16.817,26.336a10.81,10.81,0,0,1-4.291,1.575V42.968a.946.946,0,0,0,.936.931H33.539a.946.946,0,0,0,.937-.931V27.911a10.811,10.811,0,0,1-4.292-1.575,14.092,14.092,0,0,1-13.367,0ZM35.578,15.794a1.575,1.575,0,0,1,.418.057,1.548,1.548,0,0,1,.944.734,1.532,1.532,0,0,1,.144,1.175,13.939,13.939,0,0,1-4.057,6.564,7.806,7.806,0,1,0,3.01-14.992,8.023,8.023,0,0,0-1.337.115,1.566,1.566,0,0,1-1.625-.769,11.007,11.007,0,0,0-19.148,0,1.566,1.566,0,0,1-1.625.769,8.007,8.007,0,0,0-1.337-.115,7.794,7.794,0,1,0,3.01,14.992A13.94,13.94,0,0,1,9.917,17.76a1.532,1.532,0,0,1,.144-1.175A1.548,1.548,0,0,1,11,15.851a1.564,1.564,0,0,1,1.922,1.08,10.992,10.992,0,0,0,21.148,0A1.564,1.564,0,0,1,35.578,15.794Z" fill="#fff"/>
</svg>
