<svg xmlns="http://www.w3.org/2000/svg" width="33" height="48" viewBox="0 0 33 48">
  <path id="Shape" d="M29.989,48h0a3.008,3.008,0,0,1-3-3V28H22.045c1.622-14.131,6.243-28,9.329-28A1.631,1.631,0,0,1,32.99,1.7c.02,2.8.006,33.274,0,43.288V45A3,3,0,0,1,29.989,48Zm1-45.334a33.519,33.519,0,0,0-3.444,8.243A96.6,96.6,0,0,0,24.313,26h4.673V45a1,1,0,0,0,2,0l0-42.334ZM7.969,48a3,3,0,0,1-3-3V23.14c0-1.181-.63-1.672-2.01-2.749-.227-.177-.485-.378-.759-.6A5.455,5.455,0,0,1,.021,15.15C.52,10.137,1.736.1,1.749,0l1.82,0-1.2,12H4.958l.01-12h2l0,12H8.974l0-12h2l.006,12,2.685,0L12.313,0h1.776c0,.008.009.064.023.165C14.525,3.25,15.534,10.88,15.99,15.1a5.459,5.459,0,0,1-2.244,4.711c-.273.216-.529.413-.755.587-1.381,1.064-2.012,1.549-2.012,2.751V45A3.009,3.009,0,0,1,7.969,48ZM2.151,14c-.012.119-.027.239-.042.361a3.646,3.646,0,0,0,1.347,3.873c.221.177.439.347.65.512,1.6,1.25,2.869,2.238,2.869,4.394V45a.987.987,0,0,0,.994,1,1.006,1.006,0,0,0,1.009-1V23.15c0-2.188,1.271-3.165,2.88-4.4.212-.163.429-.33.648-.5A3.559,3.559,0,0,0,13.9,14.351c-.015-.118-.031-.235-.044-.351H2.151Z" transform="translate(0)" fill="#fff"/>
</svg>
